# xmcd
#
# Track frame offsets: 
#        150
#        4576
#        22484
#        44345
#        62487
#        63863
#        89530
#        111320
#        118974
#        140839
#        144713
#        160427
#
# Disc length: 2195 seconds
#
# Revision: 0
# Processed by: cddbd v1.5.2PL0 Copyright (c) Steve Scherf et al.
# Submitted via: ExactAudioCopy v0.99pb4
#
DISCID=b608910c
DTITLE=Saundra Williams - Bless The Day
DYEAR=1999
DGENRE=Soul
TTITLE0=My Music (prelude)
TTITLE1=Bless The Day
TTITLE2=Innocence - Gold Rivers
TTITLE3=Your Love
TTITLE4=Hidden
TTITLE5=Turnaround Chile
TTITLE6=Ooohh
TTITLE7=I Can't Stand It
TTITLE8=Baby Talk To Me
TTITLE9=Strong Black Woman
TTITLE10=With Or Without You
TTITLE11=Never Underestimate
EXTD=
EXTT0=
EXTT1=
EXTT2=
EXTT3=
EXTT4=
EXTT5=
EXTT6=
EXTT7=
EXTT8=
EXTT9=
EXTT10=
EXTT11=
PLAYORDER=
